<?xml version="1.0" encoding="utf-8"?>
<!-- Generator: Adobe Illustrator 18.0.0, SVG Export Plug-In . SVG Version: 6.00 Build 0)  -->
<!DOCTYPE svg PUBLIC "-//W3C//DTD SVG 1.1//EN" "http://www.w3.org/Graphics/SVG/1.1/DTD/svg11.dtd">
<svg version="1.1" xmlns="http://www.w3.org/2000/svg" xmlns:xlink="http://www.w3.org/1999/xlink" x="0px" y="0px"
	 viewBox="0 0 1440 900" enable-background="new 0 0 1440 900" xml:space="preserve">
<g id="Still">
</g>
<g id="Left">
	<g>
		<path fill="#FFFFFF" d="M107.5,557.2c-0.6,0-0.8-0.3-0.8-1.1c0-0.3,0.2-1.3,0.7-2.9l3.5-12.8h0c0,0,0,0,0-0.1l0-0.1h0
			c2-7.7,0.2-18-0.1-19.4c0-0.3,0-0.5,0-0.8c0-0.5,0.1-1,0.1-1.4c0.2-1.8,0.3-2.7,0.3-4.1c0-0.4-0.2-0.8-0.5-0.8
			c-0.3,0-0.5,0.2-0.5,0.7c-0.1,1.3-0.2,2.2-0.4,3.3c0,0.2-0.3,0.2-0.3,0c0.2-1.9-0.1-3.4-0.3-4.6c-0.1-0.5-0.4-0.8-0.7-0.8
			c-0.3,0-0.5,0.2-0.5,0.8c0.1,1.3,0.1,2.2,0,4c0,0.2-0.3,0.2-0.3,0c-0.1-1.8-0.3-3.6-0.5-4.5c-0.1-0.4-0.2-0.8-0.7-0.7
			c-0.4,0-0.5,0.5-0.5,0.8c0.1,1.3,0.1,3.1,0.2,4.5c0,0.3-0.2,0.3-0.3,0c-0.1-0.9-0.3-2.2-0.6-3.8c-0.1-0.4-0.4-0.7-0.7-0.6
			c-0.3,0.1-0.4,0.4-0.4,0.9c0,1.2,0.2,3.9,0.6,5.9c0.1,0.6-0.3,0.6-0.4,0.2c-0.3-1-0.4-1.4-1-1.9c-0.5-0.5-0.8-0.4-1-0.3
			c-0.2,0.1-0.3,0.3-0.2,0.5c0.1,0.3,0.3,0.8,0.5,1.4c0.2,0.5,0.4,1,0.6,1.8c0.4,1.6,0.7,2.6,1.6,3.6c0.1,0.1,0.2,0.3,0.4,0.4
			c0.6,3.2,1,8.6-0.8,15.1l-4,14.8c-0.2,0.8-0.3,1.6-0.3,2.3c0,2.6,1.6,4.1,4.1,4.1c3.3,0,6.4-2.8,8.4-7.7h-2.2
			C109.5,555.9,108.4,557.2,107.5,557.2z"/>
		<path fill="#FFFFFF" d="M120.8,557.2c-0.6,0-0.8-0.3-0.8-1.1c0-0.3,0.2-1.3,0.7-2.9l3.5-13h0l4-14.7c0.8-0.8,1.2-1.4,1.9-2.7
			c0.4-0.7,0.6-1.4,0.8-1.9c0.2-0.5,0.4-0.9,0.6-1.1c0.1-0.2,0-0.4-0.1-0.5c-0.2-0.2-0.5-0.2-1.1,0.1c-0.5,0.4-0.8,0.9-1.3,1.8
			c-0.2,0.4-0.7,0.2-0.5-0.7c0.3-2,1.1-4.4,1.3-5.6c0.1-0.6,0-0.9-0.3-1c-0.4-0.1-0.7,0.1-0.8,0.5c-0.5,1.6-0.8,2.7-1.2,3.6
			c-0.1,0.2-0.3,0.2-0.3-0.1c0.2-1.4,0.3-3.2,0.6-4.5c0.1-0.4,0-0.8-0.4-0.9c-0.5-0.1-0.7,0.3-0.8,0.7c-0.3,0.9-0.7,2.7-0.9,4.5
			c0,0.3-0.3,0.2-0.3,0c0.1-1.9,0.2-2.7,0.4-4c0.1-0.6-0.1-0.8-0.4-0.9c-0.3,0-0.6,0.2-0.8,0.7c-0.3,1.1-0.7,2.6-0.7,4.5
			c0,0.2-0.2,0.2-0.3,0c-0.2-1.1-0.2-1.8-0.3-3.2c0-0.4-0.2-0.7-0.5-0.6c-0.3,0-0.4,0.4-0.5,0.7c0,1.5-0.1,2.1,0.1,3.9
			c0,0.4,0,1,0,1.4c-0.1,0.9-0.2,2-0.2,3.1l-4.5,16.7h0l-4,14.7c-0.2,0.8-0.3,1.6-0.3,2.3c0,2.6,1.6,4.1,4.1,4.1
			c3.3,0,6.4-2.8,8.4-7.7h-2.2C122.8,555.9,121.7,557.2,120.8,557.2z"/>
		<path fill="#FFFFFF" d="M93.6,550.1c4-1.8,6.4-4.9,6.4-8.2c0-3.8-2.1-6.1-5.7-6.1c-7.8,0-15.9,8.6-15.9,17c0,5.4,3.2,8.7,8.5,8.7
			c2.2,0,4.1-0.4,5.7-1.3c2.6-1.4,3.8-2.5,6.7-6.2h-3.1c-1.9,2.1-4.2,3.2-6.4,3.2c-2.6,0-4.4-2.1-4.4-5v-0.3
			C89.5,551.6,91.1,551.2,93.6,550.1z M87.8,542.4c1.2-2.2,3.2-3.7,4.8-3.7c1.7,0,2.8,1.2,2.8,3.1c0,1.3-0.7,2.8-1.7,3.9
			c-0.8,0.8-1.8,1.6-2.9,2.1c-1.6,0.7-2.6,1-5.2,1.3C86.2,545.6,86.6,544.3,87.8,542.4z"/>
		<path fill="#FFFFFF" d="M140.1,535.7c-7.7,0-13.7,6.6-13.7,15c0,6.1,4.4,10.7,10.3,10.7c7.4,0.1,13.3-6.7,13.3-15.1
			C150,540.1,145.9,535.7,140.1,535.7z M141.4,554c-1.2,3.1-2.9,4.8-4.8,4.8c-2.2,0-3.8-2.3-3.8-5.3c0-3,0.7-6.6,2.1-10
			c1.2-3.3,3-5.1,5.1-5.1h0.1c2.2,0,3.7,2.1,3.7,5.4C143.6,546.5,142.7,550.7,141.4,554z"/>
		<path fill="#FFFFFF" d="M71.9,557.1c-0.4,0-0.6-0.3-0.6-0.8c0-0.4,0.2-1.3,0.7-2.5c0.1-0.2,0.1-0.2,0.2-0.5l2.6-7.6
			c0.8-2.2,1.1-4.1,1.1-5.6c0-2.9-1.3-4.4-3.9-4.4c-2.6,0-6.6,2.6-8.5,5.6l-3.3,5.2l-0.1-0.1l1.6-6.2h0l3.9-14.7
			c0.9-0.9,1.4-1.5,2.1-2.9c0.4-0.7,0.6-1.4,0.9-1.8c0.3-0.4,0.5-0.7,0.7-1c0.1-0.2,0-0.4-0.1-0.5c-0.2-0.2-0.5-0.2-1.1,0.1
			c-0.6,0.3-0.9,0.9-1.4,1.9c-0.2,0.5-0.8,0.3-0.6-0.7c0.3-2,1.3-4.5,1.5-5.6c0.1-0.6,0-0.9-0.3-1c-0.4-0.1-0.7,0.1-0.8,0.5
			c-0.5,1.6-1,2.7-1.4,3.5c-0.1,0.2-0.3,0.2-0.3-0.1c0.2-1.4,0.4-3.4,0.6-4.5c0.1-0.4-0.1-0.7-0.4-0.8c-0.4-0.1-0.7,0.3-0.8,0.7
			c-0.2,0.8-0.7,2.8-1,4.5c0,0.3-0.3,0.2-0.3,0c0.1-1.9,0.2-2.7,0.4-4c0.1-0.6-0.1-0.8-0.4-0.9c-0.3,0-0.6,0.2-0.8,0.7
			c-0.3,1.1-0.7,2.6-0.7,4.5c0,0.4-0.3,0.3-0.4,0.1c-0.4-0.9-0.7-1.7-0.8-3c0-0.4-0.2-0.7-0.5-0.6c-0.3,0-0.4,0.4-0.4,0.8
			c0,1.4,0.1,2.4,0.6,4.1c0.1,0.3,0.1,0.7,0.1,1c-0.1,0.8-0.2,1.9-0.3,3l-4.4,16.7h0L50,560.7h6.3c0.7-2.3,1-3.3,1.7-5
			c0.8-2,1.7-4,2.9-6.3c3.1-5.8,6.2-9.6,7.8-9.6c0.7,0,1.1,0.4,1.1,1.2c0,0.4-0.2,1.2-0.5,2.2l-3.7,10.5c-0.6,1.6-0.8,3.1-0.8,4.4
			c0,2.1,1.2,3.3,3.2,3.3c1.9,0,3.6-0.6,4.9-1.8c1.8-1.6,2.3-2.4,4.5-6H75C73.6,555.8,72.5,557.1,71.9,557.1z"/>
	</g>
</g>
<g id="Right">
</g>
</svg>
