<?xml version="1.0" encoding="utf-8"?>
<!-- Generator: Adobe Illustrator 18.0.0, SVG Export Plug-In . SVG Version: 6.00 Build 0)  -->
<!DOCTYPE svg PUBLIC "-//W3C//DTD SVG 1.1//EN" "http://www.w3.org/Graphics/SVG/1.1/DTD/svg11.dtd">
<svg version="1.1" id="Layer_1" xmlns="http://www.w3.org/2000/svg" xmlns:xlink="http://www.w3.org/1999/xlink" x="0px" y="0px"
	 viewBox="38.7 1001.2 583.8 292.8" enable-background="new 38.7 1001.2 583.8 292.8" xml:space="preserve">
<g id="Still">
</g>
<g id="Left">
	<g>
		<path d="M372.7,1266.2c-2.9,0-4.1-1.2-4.1-7c0-1.2,1.2-7,4.1-16.9l19.8-75.3l0,0l0,0l0,0l0,0c11.1-45.5,1.2-105,0-113.8
			c0-1.2,0-2.9,0-4.1c0-2.9,0-5.8,0-8.8c1.2-9.9,1.2-15.8,1.2-23.9c0-2.9-1.2-4.1-2.9-4.1c-1.2,0-2.9,1.2-2.9,4.1
			c0,7-1.2,12.8-2.9,19.8c0,1.2-1.2,1.2-1.2,0c1.2-11.1,0-19.8-1.2-26.8c0-2.9-2.9-4.1-4.1-4.1c-1.2,0-2.9,1.2-2.9,4.1
			c0,7,0,12.8,0,23.9c0,1.2-1.2,1.2-1.2,0c0-9.9-1.2-21-2.9-26.8c0-2.9-1.2-4.1-4.1-4.1s-2.9,2.9-2.9,4.1c0,7,0,18.7,1.2,26.8
			c0,1.2-1.2,1.2-1.2,0c0-5.8-1.2-12.8-2.9-22.8c0-2.9-2.9-4.1-4.1-2.9c-1.2,0-2.9,2.9-2.9,5.8c0,7,1.2,22.8,2.9,33.8
			c0,2.9-1.2,2.9-2.9,1.2c-1.2-5.8-2.9-8.8-5.8-11.1c-2.9-2.9-4.1-2.9-5.8-1.2c-1.2,0-1.2,1.2-1.2,2.9c0,1.2,1.2,4.1,2.9,8.8
			c1.2,2.9,2.9,5.8,2.9,9.9c2.9,9.9,4.1,15.8,9.9,21c0,0,1.2,1.2,2.9,2.9c2.9,18.7,5.8,51.4-4.1,88.1l-23.9,86.4
			c-1.2,4.1-1.2,9.9-1.2,14c0,15.8,9.9,23.9,23.9,23.9c19.8,0,36.8-16.9,49.6-45.5h-12.8C383.7,1257.4,378.5,1266.2,372.7,1266.2z"
			/>
		<path d="M450.9,1266.2c-2.9,0-4.1-1.2-4.1-7c0-1.2,1.2-7,4.1-16.9l19.8-76.5l0,0l23.9-86.4c4.1-4.1,7-8.8,11.1-15.8
			c2.9-4.1,2.9-8.8,4.1-11.1c1.2-2.9,2.9-5.8,2.9-7s0-2.9,0-2.9c-1.2-1.2-2.9-1.2-7,0c-2.9,2.9-4.1,5.8-7,9.9
			c-1.2,2.9-4.1,1.2-2.9-4.1c1.2-11.1,7-25.7,7-32.7c0-2.9,0-5.8-1.2-5.8c-2.9,0-4.1,0-4.1,2.9c-2.9,9.9-4.1,15.8-7,21
			c0,1.2-1.2,1.2-1.2,0c1.2-8.8,1.2-18.7,2.9-26.8c0-2.9,0-4.1-2.9-5.8c-2.9,0-4.1,1.2-4.1,4.1c-1.2,5.8-4.1,15.8-5.8,26.8
			c0,1.2-1.2,1.2-1.2,0c0-11.1,1.2-15.8,2.9-23.9c0-2.9,0-4.1-2.9-5.8c-1.2,0-2.9,1.2-4.1,4.1c-1.2,7-4.1,15.8-4.1,26.8
			c0,1.2-1.2,1.2-1.2,0c-1.2-7-1.2-9.9-1.2-18.7c0-2.9-1.2-4.1-2.9-2.9c-1.2,0-2.9,2.9-2.9,4.1c0,8.8,0,12.8,0,22.8
			c0,2.9,0,5.8,0,8.8c0,5.8-1.2,11.1-1.2,18.7l-26.8,98l0,0l-23.9,86.4c-1.2,4.1-1.2,9.9-1.2,14c0,15.8,9.9,23.9,23.9,23.9
			c19.8,0,36.8-16.9,49.6-45.5h-12.8C462,1257.4,456.1,1266.2,450.9,1266.2z"/>
		<path d="M291.5,1223.6c23.9-9.9,36.8-28.6,36.8-48.4c0-22.8-12.8-35.6-33.8-35.6c-45.5,0-94,51.4-94,99.2
			c0,31.5,18.7,51.4,49.6,51.4c12.8,0,23.9-2.9,33.8-7c15.8-8.8,22.8-14,39.7-36.8H305c-11.1,12.8-23.9,18.7-36.8,18.7
			c-15.8,0-25.7-12.8-25.7-29.8v-1.2C267.6,1233.5,275.8,1230.6,291.5,1223.6z M257.7,1179.2c7-12.8,18.7-21,28.6-21
			s16.9,7,16.9,18.7c0,7-4.1,16.9-9.9,22.8c-4.1,4.1-9.9,9.9-16.9,12.8c-9.9,4.1-15.8,5.8-29.8,7
			C247.8,1197.9,250.7,1190.9,257.7,1179.2z"/>
		<path d="M564.1,1139.6c-45.5,0-81.1,38.5-81.1,88.1c0,35.6,25.7,62.4,61.3,62.4c43.8,0,78.2-39.7,78.2-88.1
			C622.4,1165.2,598.5,1139.6,564.1,1139.6z M571.1,1247.5c-7,18.7-16.9,28.6-28.6,28.6c-12.8,0-22.8-14-22.8-31.5
			c0-16.9,4.1-38.5,12.8-58.4c7-19.8,16.9-29.8,29.8-29.8l0,0c12.8,0,21,12.8,21,31.5C583.9,1203.8,579.8,1227.7,571.1,1247.5z"/>
		<path d="M163.7,1264.5c-2.9,0-2.9-1.2-2.9-4.1s1.2-7,4.1-14c0-1.2,0-1.2,1.2-2.9l15.8-43.8c4.1-12.8,7-23.9,7-32.7
			c0-16.9-7-25.7-22.8-25.7s-38.5,15.8-49.6,32.7l-19.8,29.8l0,0l9.9-36.8l0,0l22.8-86.4c5.8-5.8,8.8-8.8,12.8-16.9
			c2.9-4.1,2.9-8.8,5.8-9.9c2.9-1.2,2.9-4.1,4.1-5.8c0-1.2,0-2.9,0-2.9c-1.2-1.2-2.9-1.2-7,0c-2.9,1.2-5.8,5.8-8.8,11.1
			c-1.2,2.9-4.1,1.2-2.9-4.1c1.2-11.1,7-26.8,8.8-32.7c0-2.9,0-5.8-1.2-5.8c-2.9,0-4.1,0-4.1,2.9c-2.9,9.9-5.8,15.8-8.8,19.8
			c0,1.2-1.2,1.2-1.2,0c1.2-8.8,2.9-19.8,2.9-26.8c0-2.9,0-4.1-2.9-4.1c-2.9,0-4.1,1.2-4.1,4.1c-1.2,4.1-4.1,16.9-5.8,26.8
			c0,1.2-1.2,1.2-1.2,0c0-11.1,1.2-15.8,2.9-23.9c0-2.9,0-4.1-2.9-5.8c-1.2,0-2.9,1.2-4.1,4.1c-1.2,7-4.1,15.8-4.1,26.8
			c0,2.9-1.2,1.2-2.9,0c-2.9-5.8-4.1-9.9-4.1-16.9c0-2.9-1.2-4.1-2.9-2.9c-1.2,0-2.9,2.9-2.9,4.1c0,8.8,0,14,2.9,23.9
			c0,1.2,0,4.1,0,5.8c0,4.1-1.2,11.1-1.2,16.9l-26.3,98l0,0l-31.5,120.8h36.8c4.1-14,5.8-19.8,9.9-29.8c4.1-11.1,9.9-23.9,16.9-36.8
			c18.7-33.8,36.8-56.6,45.5-56.6c4.1,0,7,2.9,7,7c0,2.9-1.2,7-2.9,12.8l-21,61.3c-2.9,9.9-4.1,18.7-4.1,25.7
			c0,12.8,7,19.8,18.7,19.8c11.1,0,21-2.9,28.6-9.9c9.9-9.9,14-14,26.8-35.6h-14C173.6,1257.4,166.6,1264.5,163.7,1264.5z"/>
	</g>
</g>
<g id="Right">
</g>
</svg>
