<?xml version="1.0" encoding="utf-8"?>
<!-- Generator: Adobe Illustrator 18.0.0, SVG Export Plug-In . SVG Version: 6.00 Build 0)  -->
<!DOCTYPE svg PUBLIC "-//W3C//DTD SVG 1.1//EN" "http://www.w3.org/Graphics/SVG/1.1/DTD/svg11.dtd">
<svg version="1.1" id="Layer_1" xmlns="http://www.w3.org/2000/svg" xmlns:xlink="http://www.w3.org/1999/xlink" x="0px" y="0px"
	 viewBox="33 726.2 102 51" enable-background="new 33 726.2 102 51" xml:space="preserve">
<g id="Still">
</g>
<g id="Left">
	<g>
		<path fill="#FFFFFF" d="M91.2,772.1c-0.5,0-0.7-0.2-0.7-1.2c0-0.2,0.2-1.2,0.7-2.9l3.4-12.9l0,0l0,0l0,0l0,0
			c1.9-7.8,0.2-18,0-19.5c0-0.2,0-0.5,0-0.7c0-0.5,0-1,0-1.5c0.2-1.7,0.2-2.7,0.2-4.1c0-0.5-0.2-0.7-0.5-0.7c-0.2,0-0.5,0.2-0.5,0.7
			c0,1.2-0.2,2.2-0.5,3.4c0,0.2-0.2,0.2-0.2,0c0.2-1.9,0-3.4-0.2-4.6c0-0.5-0.5-0.7-0.7-0.7c-0.2,0-0.5,0.2-0.5,0.7
			c0,1.2,0,2.2,0,4.1c0,0.2-0.2,0.2-0.2,0c0-1.7-0.2-3.6-0.5-4.6c0-0.5-0.2-0.7-0.7-0.7c-0.5,0-0.5,0.5-0.5,0.7c0,1.2,0,3.2,0.2,4.6
			c0,0.2-0.2,0.2-0.2,0c0-1-0.2-2.2-0.5-3.9c0-0.5-0.5-0.7-0.7-0.5c-0.2,0-0.5,0.5-0.5,1c0,1.2,0.2,3.9,0.5,5.8
			c0,0.5-0.2,0.5-0.5,0.2c-0.2-1-0.5-1.5-1-1.9c-0.5-0.5-0.7-0.5-1-0.2c-0.2,0-0.2,0.2-0.2,0.5c0,0.2,0.2,0.7,0.5,1.5
			c0.2,0.5,0.5,1,0.5,1.7c0.5,1.7,0.7,2.7,1.7,3.6c0,0,0.2,0.2,0.5,0.5c0.5,3.2,1,8.8-0.7,15.1l-4.1,14.8c-0.2,0.7-0.2,1.7-0.2,2.4
			c0,2.7,1.7,4.1,4.1,4.1c3.4,0,6.3-2.9,8.5-7.8h-2.2C93.1,770.6,92.2,772.1,91.2,772.1z"/>
		<path fill="#FFFFFF" d="M104.6,772.1c-0.5,0-0.7-0.2-0.7-1.2c0-0.2,0.2-1.2,0.7-2.9l3.4-13.1l0,0l4.1-14.8
			c0.7-0.7,1.2-1.5,1.9-2.7c0.5-0.7,0.5-1.5,0.7-1.9c0.2-0.5,0.5-1,0.5-1.2c0-0.2,0-0.5,0-0.5c-0.2-0.2-0.5-0.2-1.2,0
			c-0.5,0.5-0.7,1-1.2,1.7c-0.2,0.5-0.7,0.2-0.5-0.7c0.2-1.9,1.2-4.4,1.2-5.6c0-0.5,0-1-0.2-1c-0.5,0-0.7,0-0.7,0.5
			c-0.5,1.7-0.7,2.7-1.2,3.6c0,0.2-0.2,0.2-0.2,0c0.2-1.5,0.2-3.2,0.5-4.6c0-0.5,0-0.7-0.5-1c-0.5,0-0.7,0.2-0.7,0.7
			c-0.2,1-0.7,2.7-1,4.6c0,0.2-0.2,0.2-0.2,0c0-1.9,0.2-2.7,0.5-4.1c0-0.5,0-0.7-0.5-1c-0.2,0-0.5,0.2-0.7,0.7
			c-0.2,1.2-0.7,2.7-0.7,4.6c0,0.2-0.2,0.2-0.2,0c-0.2-1.2-0.2-1.7-0.2-3.2c0-0.5-0.2-0.7-0.5-0.5c-0.2,0-0.5,0.5-0.5,0.7
			c0,1.5,0,2.2,0,3.9c0,0.5,0,1,0,1.5c0,1-0.2,1.9-0.2,3.2l-4.6,16.8l0,0l-4.1,14.8c-0.2,0.7-0.2,1.7-0.2,2.4c0,2.7,1.7,4.1,4.1,4.1
			c3.4,0,6.3-2.9,8.5-7.8h-2.2C106.5,770.6,105.5,772.1,104.6,772.1z"/>
		<path fill="#FFFFFF" d="M77.3,764.8c4.1-1.7,6.3-4.9,6.3-8.3c0-3.9-2.2-6.1-5.8-6.1c-7.8,0-16.1,8.8-16.1,17
			c0,5.4,3.2,8.8,8.5,8.8c2.2,0,4.1-0.5,5.8-1.2c2.7-1.5,3.9-2.4,6.8-6.3h-3.2c-1.9,2.2-4.1,3.2-6.3,3.2c-2.7,0-4.4-2.2-4.4-5.1
			v-0.2C73.2,766.5,74.6,766,77.3,764.8z M71.5,757.2c1.2-2.2,3.2-3.6,4.9-3.6c1.7,0,2.9,1.2,2.9,3.2c0,1.2-0.7,2.9-1.7,3.9
			c-0.7,0.7-1.7,1.7-2.9,2.2c-1.7,0.7-2.7,1-5.1,1.2C69.8,760.4,70.3,759.2,71.5,757.2z"/>
		<path fill="#FFFFFF" d="M124,750.4c-7.8,0-13.9,6.6-13.9,15.1c0,6.1,4.4,10.7,10.5,10.7c7.5,0,13.4-6.8,13.4-15.1
			C134,754.8,129.9,750.4,124,750.4z M125.2,768.9c-1.2,3.2-2.9,4.9-4.9,4.9c-2.2,0-3.9-2.4-3.9-5.4c0-2.9,0.7-6.6,2.2-10
			c1.2-3.4,2.9-5.1,5.1-5.1l0,0c2.2,0,3.6,2.2,3.6,5.4C127.4,761.4,126.7,765.5,125.2,768.9z"/>
		<path fill="#FFFFFF" d="M55.4,771.8c-0.5,0-0.5-0.2-0.5-0.7c0-0.5,0.2-1.2,0.7-2.4c0-0.2,0-0.2,0.2-0.5l2.7-7.5
			c0.7-2.2,1.2-4.1,1.2-5.6c0-2.9-1.2-4.4-3.9-4.4s-6.6,2.7-8.5,5.6l-3.4,5.1l0,0l1.7-6.3l0,0l3.9-14.8c1-1,1.5-1.5,2.2-2.9
			c0.5-0.7,0.5-1.5,1-1.7c0.5-0.2,0.5-0.7,0.7-1c0-0.2,0-0.5,0-0.5c-0.2-0.2-0.5-0.2-1.2,0c-0.5,0.2-1,1-1.5,1.9
			c-0.2,0.5-0.7,0.2-0.5-0.7c0.2-1.9,1.2-4.6,1.5-5.6c0-0.5,0-1-0.2-1c-0.5,0-0.7,0-0.7,0.5c-0.5,1.7-1,2.7-1.5,3.4
			c0,0.2-0.2,0.2-0.2,0c0.2-1.5,0.5-3.4,0.5-4.6c0-0.5,0-0.7-0.5-0.7c-0.5,0-0.7,0.2-0.7,0.7c-0.2,0.7-0.7,2.9-1,4.6
			c0,0.2-0.2,0.2-0.2,0c0-1.9,0.2-2.7,0.5-4.1c0-0.5,0-0.7-0.5-1c-0.2,0-0.5,0.2-0.7,0.7c-0.2,1.2-0.7,2.7-0.7,4.6
			c0,0.5-0.2,0.2-0.5,0c-0.5-1-0.7-1.7-0.7-2.9c0-0.5-0.2-0.7-0.5-0.5c-0.2,0-0.5,0.5-0.5,0.7c0,1.5,0,2.4,0.5,4.1c0,0.2,0,0.7,0,1
			c0,0.7-0.2,1.9-0.2,2.9L39.4,755l0,0L34,775.7h6.3c0.7-2.4,1-3.4,1.7-5.1c0.7-1.9,1.7-4.1,2.9-6.3c3.2-5.8,6.3-9.7,7.8-9.7
			c0.7,0,1.2,0.5,1.2,1.2c0,0.5-0.2,1.2-0.5,2.2l-3.6,10.5c-0.5,1.7-0.7,3.2-0.7,4.4c0,2.2,1.2,3.4,3.2,3.4c1.9,0,3.6-0.5,4.9-1.7
			c1.7-1.7,2.4-2.4,4.6-6.1h-2.4C57.1,770.6,55.9,771.8,55.4,771.8z"/>
	</g>
</g>
<g id="Right">
</g>
</svg>
